<svg width="62" height="62" viewBox="0 0 62 62" fill="none" xmlns="http://www.w3.org/2000/svg">
<g clip-path="url(#clip0_1_60)">
<path d="M47.4688 0H14.5312C6.50586 0 0 6.50586 0 14.5312V47.4688C0 55.4941 6.50586 62 14.5312 62H47.4688C55.4941 62 62 55.4941 62 47.4688V14.5312C62 6.50586 55.4941 0 47.4688 0Z" fill="#3A9592"/>
<path d="M31.0002 7.26562C17.6262 7.26562 6.78125 18.1086 6.78125 31.4846C6.78125 42.1852 13.7207 51.2633 23.3437 54.4658C24.5539 54.6901 24.9984 53.9405 24.9984 53.3009C24.9984 52.7232 24.9758 50.8155 24.9654 48.7918C18.2278 50.2568 16.806 45.9342 16.806 45.9342C15.7043 43.1348 14.117 42.3906 14.117 42.3906C11.9196 40.8873 14.2826 40.9183 14.2826 40.9183C16.7146 41.089 17.9952 43.414 17.9952 43.414C20.1553 47.1166 23.6609 46.0461 25.0429 45.4273C25.2604 43.8619 25.8879 42.7936 26.5806 42.1888C21.2012 41.5763 15.5463 39.4996 15.5463 30.2197C15.5463 27.5755 16.4924 25.4149 18.0417 23.7189C17.7902 23.1089 16.9612 20.6456 18.2763 17.3097C18.2763 17.3097 20.3101 16.6587 24.9383 19.7922C26.8702 19.2556 28.9419 18.9865 31.0002 18.9773C33.0584 18.9865 35.132 19.2556 37.0673 19.7922C41.6899 16.6587 43.7209 17.3097 43.7209 17.3097C45.0391 20.6456 44.2099 23.1089 43.9582 23.7189C45.5112 25.4149 46.4508 27.5755 46.4508 30.2197C46.4508 39.5219 40.7851 41.57 35.3921 42.1694C36.2608 42.9212 37.0348 44.3949 37.0348 46.6545C37.0348 49.895 37.0067 52.5031 37.0067 53.3009C37.0067 53.9453 37.4427 54.7005 38.6703 54.4626C48.2881 51.2566 55.2188 42.1816 55.2188 31.4846C55.2188 18.1086 44.3753 7.26562 31.0002 7.26562ZM15.852 41.766C15.7987 41.8863 15.6094 41.9224 15.4369 41.8398C15.2613 41.7609 15.1626 41.5967 15.2196 41.4761C15.2717 41.3521 15.4614 41.3177 15.6367 41.4007C15.8127 41.4797 15.913 41.6454 15.852 41.766ZM17.0433 42.8289C16.9278 42.9362 16.7021 42.8863 16.5488 42.717C16.3904 42.5482 16.3607 42.3225 16.4779 42.2138C16.597 42.1067 16.816 42.1569 16.9748 42.3257C17.1332 42.4966 17.164 42.7207 17.0433 42.8289ZM17.8606 44.189C17.7122 44.2922 17.4696 44.1956 17.3196 43.98C17.1712 43.7647 17.1712 43.5066 17.3228 43.4029C17.4732 43.2995 17.7122 43.3925 17.8642 43.6063C18.0122 43.8253 18.0122 44.0837 17.8606 44.189ZM19.2428 45.7642C19.1101 45.9105 18.8273 45.8713 18.6204 45.6715C18.4086 45.4763 18.3497 45.1992 18.4828 45.0527C18.6172 44.9059 18.9015 44.9473 19.1101 45.1454C19.3202 45.3402 19.3844 45.6194 19.2428 45.7642ZM21.0292 46.2958C20.9706 46.4857 20.6983 46.5719 20.424 46.4913C20.15 46.4082 19.9708 46.1861 20.0261 45.9943C20.0831 45.8035 20.3566 45.7136 20.6329 45.7998C20.9064 45.8824 21.0861 46.1031 21.0292 46.2958ZM23.0621 46.5216C23.0689 46.7211 22.8363 46.8868 22.5484 46.8904C22.2588 46.8969 22.0246 46.7352 22.0214 46.5387C22.0214 46.337 22.2488 46.173 22.5383 46.1682C22.8263 46.1626 23.0621 46.323 23.0621 46.5216ZM25.0591 46.445C25.0938 46.6397 24.8937 46.84 24.6077 46.8933C24.3265 46.9447 24.0662 46.8243 24.0305 46.631C23.9956 46.4312 24.1994 46.2312 24.4801 46.1793C24.7666 46.1297 25.0228 46.2469 25.0591 46.445Z" fill="white"/>
</g>
<defs>
<clipPath id="clip0_1_60">
<rect width="62" height="62" fill="white"/>
</clipPath>
</defs>
</svg>
