<svg width="62" height="62" viewBox="0 0 62 62" fill="none" xmlns="http://www.w3.org/2000/svg">
<g clip-path="url(#clip0_1_54)">
<path d="M56.3916 0H5.6084C2.511 0 0 2.511 0 5.6084V56.3914C0 59.489 2.511 62 5.6084 62H56.3914C59.489 62 62 59.489 62 56.3914V5.6084C62 2.511 59.489 0 56.3916 0ZM19.1854 53.5349C19.1854 54.4363 18.4547 55.167 17.5533 55.167H10.6057C9.7043 55.167 8.97361 54.4363 8.97361 53.5349V24.411C8.97361 23.5095 9.7043 22.7788 10.6057 22.7788H17.5533C18.4547 22.7788 19.1854 23.5095 19.1854 24.411V53.5349ZM14.0795 20.0335C10.4343 20.0335 7.47928 17.0784 7.47928 13.4332C7.47928 9.78805 10.4343 6.83298 14.0795 6.83298C17.7247 6.83298 20.6798 9.78805 20.6798 13.4332C20.6798 17.0784 17.7249 20.0335 14.0795 20.0335ZM55.4932 53.6664C55.4932 54.4951 54.8213 55.167 53.9926 55.167H46.5373C45.7086 55.167 45.0367 54.4951 45.0367 53.6664V40.0056C45.0367 37.9677 45.6344 31.0755 39.711 31.0755C35.1163 31.0755 34.1844 35.793 33.9973 37.9101V53.6664C33.9973 54.4951 33.3255 55.167 32.4966 55.167H25.2861C24.4574 55.167 23.7854 54.4951 23.7854 53.6664V24.2795C23.7854 23.4508 24.4574 22.7788 25.2861 22.7788H32.4966C33.3253 22.7788 33.9973 23.4508 33.9973 24.2795V26.8204C35.701 24.2636 38.2329 22.2901 43.6238 22.2901C55.5616 22.2901 55.4932 33.443 55.4932 39.5709V53.6664Z" fill="#3A9592"/>
</g>
<defs>
<clipPath id="clip0_1_54">
<rect width="62" height="62" fill="white"/>
</clipPath>
</defs>
</svg>
