<svg width="47" height="47" viewBox="0 0 47 47" fill="none" xmlns="http://www.w3.org/2000/svg">
<path d="M40.6477 33.2139C39.8399 30.9098 37.9571 29.7422 36.1396 28.6131C34.5579 27.6299 33.0644 26.701 32.0876 25.033C29.3952 20.4129 27.9164 17.625 23.5055 17.625C19.0947 17.625 17.6113 20.4138 14.9124 25.0321C13.9348 26.7037 12.4339 27.6345 10.8504 28.6195C9.03285 29.7495 7.15377 30.9144 6.3432 33.2139C6.02781 34.0432 5.86907 34.9237 5.87504 35.8109C5.87504 39.5507 8.85385 42.5938 12.1539 42.5938C15.454 42.5938 19.8015 40.9295 23.5147 40.9295C27.2279 40.9295 31.5148 42.5938 34.8562 42.5938C38.1976 42.5938 41.125 39.5507 41.125 35.8109C41.1277 34.9232 40.9658 34.0427 40.6477 33.2139Z" fill="#3A9592"/>
<path d="M6.60938 26.4375C9.44846 26.4375 11.75 23.4784 11.75 19.8281C11.75 16.1779 9.44846 13.2188 6.60938 13.2188C3.77029 13.2188 1.46875 16.1779 1.46875 19.8281C1.46875 23.4784 3.77029 26.4375 6.60938 26.4375Z" fill="#3A9592"/>
<path d="M16.8906 17.625C19.7297 17.625 22.0312 14.6659 22.0312 11.0156C22.0312 7.36537 19.7297 4.40625 16.8906 4.40625C14.0515 4.40625 11.75 7.36537 11.75 11.0156C11.75 14.6659 14.0515 17.625 16.8906 17.625Z" fill="#3A9592"/>
<path d="M30.1094 17.625C32.9485 17.625 35.25 14.6659 35.25 11.0156C35.25 7.36537 32.9485 4.40625 30.1094 4.40625C27.2703 4.40625 24.9688 7.36537 24.9688 11.0156C24.9688 14.6659 27.2703 17.625 30.1094 17.625Z" fill="#3A9592"/>
<path d="M40.3906 26.4375C43.2297 26.4375 45.5312 23.4784 45.5312 19.8281C45.5312 16.1779 43.2297 13.2188 40.3906 13.2188C37.5515 13.2188 35.25 16.1779 35.25 19.8281C35.25 23.4784 37.5515 26.4375 40.3906 26.4375Z" fill="#3A9592"/>
</svg>
